<?xml version="1.0" standalone="no"?>
<!DOCTYPE svg PUBLIC "-//W3C//DTD SVG 20010904//EN"
 "http://www.w3.org/TR/2001/REC-SVG-20010904/DTD/svg10.dtd">
<svg version="1.0" xmlns="http://www.w3.org/2000/svg"
 width="816.000000pt" height="818.000000pt" viewBox="0 0 816.000000 818.000000"
 preserveAspectRatio="xMidYMid meet">
<metadata>
Created by potrace 1.16, written by Peter Selinger 2001-2019
</metadata>
<g transform="translate(0.000000,818.000000) scale(0.100000,-0.100000)"
fill="#000000" stroke="none">
<path d="M8120 4090 c0 -4083 0 -4090 20 -4090 20 0 20 7 20 4090 0 4083 0
4090 -20 4090 -20 0 -20 -7 -20 -4090z"/>
<path d="M3725 7539 c-197 -20 -424 -64 -616 -120 -119 -35 -185 -58 -386
-137 -38 -14 -57 -32 -35 -32 4 0 25 -22 45 -49 59 -77 45 -131 -34 -131 -22
0 -49 -5 -60 -11 -15 -8 -25 -6 -46 10 -16 13 -41 21 -65 21 -25 0 -41 5 -45
15 -6 16 22 55 40 55 14 0 67 40 67 51 0 5 -33 -7 -72 -27 -99 -49 -278 -154
-278 -162 0 -4 14 -25 30 -46 17 -22 30 -51 30 -65 0 -40 14 -55 44 -47 25 6
26 5 26 -39 0 -25 3 -45 6 -45 3 0 54 30 112 67 160 100 404 214 587 274 210
69 499 131 673 144 50 4 92 12 92 17 0 5 -8 8 -17 7 -10 -1 -29 0 -43 1 -22 2
-21 3 10 14 19 6 40 14 45 17 6 4 28 10 50 14 22 3 48 14 57 22 16 14 18 14
24 -1 4 -10 13 -15 20 -12 14 5 34 -8 76 -46 14 -15 36 -18 108 -18 90 0 90 0
90 26 0 39 -16 61 -55 74 -26 9 -39 21 -50 48 -9 19 -31 55 -51 79 l-35 43
-132 -1 c-73 -1 -168 -5 -212 -10z"/>
<path d="M4151 7543 c0 -5 8 -26 18 -48 17 -39 19 -40 67 -40 l49 0 3 -62 3
-62 37 -3 c32 -3 38 -7 46 -34 9 -31 10 -31 125 -49 64 -9 150 -25 192 -35 43
-9 83 -14 90 -10 8 4 33 10 57 14 35 5 49 2 72 -14 23 -16 33 -18 55 -10 18 7
33 7 47 -1 11 -6 35 -8 54 -4 41 7 41 3 9 -39 l-25 -33 107 -43 c238 -94 531
-262 718 -411 88 -70 234 -204 270 -246 23 -28 33 -33 70 -33 54 0 76 -25 68
-76 -5 -30 1 -43 49 -107 82 -109 102 -138 133 -187 25 -41 22 -38 -36 24 -94
103 -159 166 -169 166 -5 0 -12 -4 -15 -10 -11 -18 -51 -10 -74 14 -13 14 -36
30 -52 36 -22 9 -29 19 -29 39 0 17 -11 38 -30 56 -16 16 -28 37 -27 48 5 47
-453 318 -708 420 -336 133 -650 205 -1024 234 -63 5 -82 3 -77 -5 4 -7 3 -12
-3 -12 -5 0 -11 6 -14 13 -5 16 -361 15 -507 -2 -271 -32 -670 -120 -670 -147
0 -6 6 -17 14 -24 8 -6 12 -18 9 -26 -8 -22 -46 -13 -58 14 -12 27 -24 27 -95
3 -333 -112 -731 -346 -1014 -597 l-88 -78 5 -66 c3 -36 9 -78 13 -93 6 -25 4
-28 -12 -25 -16 3 -19 14 -22 68 -2 36 -7 69 -11 73 -7 7 -49 -34 -135 -133
l-39 -45 23 40 c30 52 53 85 112 166 l49 66 1 179 c1 98 6 185 11 192 16 20
43 14 56 -14 9 -20 8 -36 -4 -77 -8 -28 -15 -83 -15 -123 0 -40 -4 -76 -10
-79 -5 -3 -10 -13 -10 -22 0 -9 49 35 109 99 113 118 261 250 366 327 33 25
62 46 65 48 2 2 0 7 -5 11 -20 14 -44 59 -70 134 -10 25 -29 60 -44 77 l-26
31 -101 -73 c-221 -158 -398 -315 -561 -496 -80 -88 -92 -105 -81 -119 11 -13
10 -14 -11 -7 -19 6 -23 4 -18 -9 3 -8 2 -18 -3 -21 -5 -3 -7 -12 -4 -20 8
-20 -14 -82 -31 -89 -8 -3 -15 -18 -15 -33 0 -15 -7 -37 -15 -47 -14 -19 -15
-19 -15 6 0 15 -4 29 -10 33 -5 3 -7 12 -3 20 14 38 -19 8 -68 -62 -79 -112
-229 -360 -229 -379 0 -2 11 -4 24 -4 41 0 39 -18 -3 -25 -38 -6 -40 -9 -85
-106 -51 -109 -109 -258 -149 -384 -35 -107 -80 -276 -75 -281 2 -2 24 16 49
39 60 59 121 97 103 65 -4 -8 -3 -10 2 -5 5 5 9 12 10 15 3 24 48 101 71 124
50 49 98 85 120 90 26 7 176 -15 215 -30 39 -16 58 -60 58 -134 0 -35 5 -90
10 -123 5 -33 12 -123 15 -200 3 -77 8 -169 12 -205 l6 -65 22 130 c55 326
168 630 341 916 257 427 610 753 1078 1000 89 47 89 47 93 90 8 77 43 107 64
53 7 -21 6 -31 -7 -45 -25 -27 -13 -32 32 -13 375 158 850 224 1284 180 457
-48 911 -224 1285 -501 41 -30 77 -55 79 -55 2 0 7 19 11 41 4 23 18 62 31 88
14 26 28 70 33 100 9 58 41 106 41 61 -1 -48 -28 -140 -50 -167 l-21 -27 26
-20 26 -19 -37 -38 -38 -39 65 -56 c96 -85 212 -207 302 -316 43 -54 84 -96
91 -95 6 1 11 -5 11 -14 0 -9 32 -66 71 -125 123 -188 241 -432 299 -616 17
-55 35 -77 35 -42 0 29 27 -9 33 -46 3 -19 9 -51 14 -70 5 -20 6 -52 1 -75
-13 -57 9 -173 36 -190 12 -8 59 -30 106 -50 l85 -36 -29 30 c-25 26 -27 31
-13 37 19 7 55 2 132 -17 l50 -12 -40 -14 c-41 -14 -80 -43 -58 -43 7 0 20
-17 30 -37 9 -21 26 -47 36 -58 15 -17 18 -36 16 -133 -1 -62 1 -116 5 -119 3
-4 6 -17 6 -30 0 -20 5 -23 34 -23 42 0 47 6 85 110 16 47 42 116 56 153 14
37 25 72 25 77 0 4 -18 11 -40 15 -24 4 -44 14 -50 26 -7 12 -21 19 -39 19
-16 0 -34 6 -40 14 -10 12 -3 16 41 21 29 4 78 2 108 -3 30 -6 55 -10 55 -9 1
1 32 64 69 141 78 157 76 143 32 327 -36 144 -69 250 -81 252 -5 1 -14 -18
-21 -43 -13 -50 -17 -41 -18 40 -1 33 4 59 11 65 10 8 5 30 -21 102 -19 51
-46 109 -60 130 -14 21 -26 41 -26 45 0 5 -15 22 -32 39 -28 26 -30 29 -10 24
12 -4 22 -3 22 1 0 16 -136 265 -200 366 -287 452 -689 838 -1156 1110 -145
85 -208 114 -276 128 -45 9 -62 18 -78 41 -26 36 -34 36 -49 3 -9 -21 -16 -25
-34 -19 -67 20 -91 23 -119 13 -20 -7 -32 -7 -37 -1 -3 6 -15 12 -26 14 -20 4
-63 78 -64 111 -1 20 -86 47 -279 89 -153 34 -215 43 -432 64 -177 17 -200 18
-199 8z"/>
<path d="M3825 6689 c-304 -27 -593 -108 -880 -248 -341 -167 -638 -405 -869
-695 -31 -39 -54 -71 -52 -73 10 -11 69 13 76 31 8 21 50 65 50 53 0 -4 -16
-32 -36 -63 -30 -47 -36 -66 -37 -116 -2 -45 -6 -64 -19 -72 -9 -5 -20 -7 -23
-4 -14 14 -17 90 -5 114 15 27 2 52 -20 39 -43 -27 -310 -506 -310 -556 0 -14
6 -16 38 -9 75 16 259 40 337 44 44 3 129 8 189 12 l108 7 45 68 c137 212 349
427 556 564 l58 38 -28 23 c-15 13 -34 21 -42 19 -7 -3 -20 0 -27 6 -8 6 -20
9 -29 5 -8 -3 -49 4 -91 14 -43 11 -91 20 -108 20 -17 0 -38 5 -46 10 -29 19
11 30 85 24 61 -5 231 -56 245 -74 3 -3 21 -11 40 -16 29 -8 41 -7 68 9 38 22
38 26 13 76 -14 27 -17 41 -9 49 16 16 38 3 38 -24 0 -13 5 -24 10 -24 6 0 10
-9 10 -21 0 -13 5 -19 13 -16 145 64 184 81 193 88 6 5 44 18 85 28 41 11 108
28 149 39 143 38 237 47 465 46 261 0 391 -21 619 -100 397 -136 769 -429 991
-779 48 -75 203 -255 219 -255 3 0 15 -9 26 -20 17 -17 18 -20 3 -28 -14 -8
-14 -14 -3 -43 19 -51 32 -127 34 -199 1 -36 3 -67 4 -70 2 -3 4 -34 6 -70 2
-36 9 -126 16 -200 33 -362 -45 -746 -217 -1070 -89 -168 -217 -342 -337 -460
-57 -55 -72 -87 -37 -75 13 4 23 -2 36 -22 10 -16 27 -36 39 -46 21 -19 21
-19 -16 -13 -21 2 -38 1 -38 -5 0 -5 -7 -9 -15 -9 -8 0 -23 -4 -33 -9 -41 -21
-69 -29 -94 -28 -28 2 -52 17 -26 17 9 0 18 9 21 20 4 16 -8 11 -60 -26 -256
-183 -504 -292 -793 -350 -36 -7 -135 -18 -221 -25 -547 -43 -1092 153 -1488
535 -145 140 -304 356 -386 524 -26 54 -46 82 -57 82 -21 0 -123 -26 -218 -55
-83 -26 -190 -41 -190 -28 0 9 100 33 138 33 12 0 22 5 22 10 0 13 5 13 -106
-6 -88 -15 -96 -15 -120 1 -16 10 -35 14 -53 10 -22 -5 -31 0 -51 27 -13 18
-25 41 -26 53 -4 38 -53 260 -73 330 -11 39 -23 91 -26 118 -4 26 -11 47 -16
47 -6 0 -8 -8 -5 -17 3 -10 10 -52 16 -93 68 -493 284 -951 633 -1342 54 -61
71 -75 81 -65 7 6 11 19 9 28 -7 26 15 33 44 14 24 -16 27 -16 38 -1 16 22 34
20 28 -2 -3 -12 9 -30 36 -55 45 -41 48 -49 26 -67 -9 -7 -15 -29 -15 -51 0
-35 5 -43 58 -84 174 -138 417 -277 625 -360 166 -66 386 -129 413 -118 8 3
20 1 27 -5 56 -44 530 -70 772 -43 229 27 487 93 685 176 147 61 460 233 460
252 0 11 -49 45 -107 74 -35 16 -63 34 -63 40 0 16 43 10 78 -11 18 -11 42
-20 55 -20 12 -1 33 -7 47 -15 43 -25 66 -17 152 51 173 139 488 484 488 537
0 9 9 21 19 27 16 8 74 98 133 205 82 147 187 408 188 463 0 13 -29 78 -64
145 -80 150 -202 475 -272 722 -32 109 -95 442 -88 460 8 20 57 25 140 15 150
-19 236 -53 257 -102 22 -51 37 -102 37 -125 0 -11 7 -38 16 -58 8 -21 13 -46
11 -57 -3 -10 -1 -21 4 -24 5 -3 9 -24 9 -48 0 -23 6 -51 14 -62 10 -14 11
-23 4 -32 -8 -9 -7 -20 2 -37 49 -92 52 107 5 375 -64 357 -205 700 -409 993
-26 37 -52 67 -57 67 -15 0 -46 -35 -42 -47 2 -6 -5 -14 -16 -17 -12 -3 -30
-9 -42 -12 -18 -5 -20 -2 -17 23 2 15 9 28 15 28 7 0 20 11 29 25 9 14 24 30
32 37 13 10 4 25 -56 96 -195 229 -485 466 -720 587 -56 29 -66 31 -92 20 -16
-7 -53 -36 -81 -66 -31 -31 -63 -54 -78 -56 -16 -2 -31 -13 -39 -30 -7 -15
-22 -30 -35 -34 -40 -13 -78 -48 -108 -101 -28 -49 -60 -71 -58 -40 1 23 125
162 148 165 12 2 26 13 30 25 5 12 45 57 90 101 45 43 81 80 81 82 0 5 -149
74 -159 74 -4 0 -34 11 -67 24 -32 13 -74 27 -91 31 -31 6 -33 5 -34 -22 0
-27 -1 -27 -9 -5 -10 24 -30 30 -30 10 -1 -19 -77 -70 -109 -72 -16 -1 -36
-10 -45 -19 -10 -9 -27 -17 -38 -17 -20 0 -20 1 -5 18 10 10 17 24 17 30 0 7
29 33 65 59 78 56 84 52 -113 88 -237 43 -439 53 -667 34z m-1586 -3642 c17
-30 61 -95 98 -145 335 -450 829 -745 1383 -826 216 -32 502 -30 680 4 173 33
221 45 231 56 6 7 16 11 22 8 17 -6 128 29 128 41 0 6 -10 12 -23 15 -21 5
-20 7 11 20 26 10 37 11 52 2 29 -18 45 -15 137 28 357 168 651 422 865 747
33 51 62 91 64 89 2 -2 -24 -59 -57 -128 -48 -98 -60 -130 -55 -151 5 -20 11
-25 19 -17 9 7 19 5 32 -5 18 -14 17 -14 -11 -16 -16 0 -43 -1 -60 0 -27 1
-37 -9 -105 -106 -93 -133 -257 -305 -395 -414 -94 -75 -104 -85 -88 -96 9 -7
37 -13 62 -14 41 0 43 -1 21 -11 -14 -5 -38 -16 -55 -24 -16 -7 -48 -16 -70
-20 -22 -4 -46 -14 -53 -23 -11 -15 -13 -14 -23 2 -13 23 -24 19 -164 -48 -60
-29 -159 -70 -220 -90 -60 -21 -114 -42 -119 -47 -6 -4 -24 -8 -40 -8 -17 0
-76 -9 -131 -21 -128 -26 -374 -36 -514 -20 -243 27 -441 84 -656 190 -333
165 -592 393 -803 706 -80 120 -215 375 -198 375 3 0 18 -24 35 -53z"/>
<path d="M3920 5813 c-85 -8 -192 -27 -280 -49 -105 -27 -260 -83 -260 -95 0
-11 66 -58 103 -74 49 -20 108 -90 107 -127 -1 -10 -4 -9 -13 2 -7 9 -22 20
-34 25 -12 6 -50 37 -85 70 -111 106 -97 101 -170 64 -125 -62 -382 -252 -411
-304 -11 -21 26 -89 57 -103 14 -6 26 -16 26 -22 0 -17 -20 -11 -44 13 -13 12
-37 32 -53 44 l-30 22 -25 -27 c-14 -15 -44 -53 -68 -85 -41 -55 -42 -58 -24
-72 16 -13 17 -16 4 -25 -8 -5 -23 -10 -32 -10 -23 0 -49 -36 -106 -148 -71
-139 -118 -279 -157 -469 -7 -37 -8 -37 71 -33 32 1 64 -5 83 -14 41 -22 40
-39 -1 -22 -47 19 -96 27 -103 17 -5 -9 65 -41 90 -41 23 0 65 -22 65 -35 0
-6 -11 -17 -24 -25 -23 -12 -24 -14 -10 -36 15 -21 14 -22 -8 -17 -13 3 -28
10 -34 14 -11 9 -133 4 -143 -6 -11 -12 -2 -249 14 -345 16 -96 52 -230 61
-230 3 0 24 9 46 20 23 11 53 20 66 20 17 0 22 4 19 14 -3 8 -11 41 -17 74
-14 70 -2 109 40 129 14 6 112 27 219 47 107 20 197 38 199 41 3 3 -15 70 -41
150 -26 79 -47 151 -47 159 0 18 -8 20 -145 45 -60 11 -130 24 -155 30 -78 17
-93 60 -62 181 29 112 68 189 109 213 33 19 33 19 89 -7 63 -29 80 -32 87 -13
2 8 25 12 73 11 65 -2 68 -1 47 13 -26 17 -32 49 -8 39 8 -3 27 -1 41 4 20 8
24 13 15 23 -8 10 -7 19 4 33 13 17 14 12 12 -50 l-2 -70 55 -13 c127 -32 148
-51 182 -168 14 -46 20 -52 69 -77 30 -15 56 -27 59 -27 4 -1 12 14 18 33 21
58 34 62 100 32 33 -14 75 -32 94 -40 l36 -15 60 48 c85 68 241 122 313 107
22 -4 29 -2 29 9 0 19 34 19 53 0 13 -13 21 -3 66 75 69 118 172 250 258 331
61 56 82 85 152 214 45 83 90 156 99 163 43 33 134 -1 246 -94 67 -56 68 -56
83 -34 20 28 61 44 78 30 7 -6 20 -8 29 -4 27 10 19 -22 -9 -34 -14 -7 -30
-23 -37 -37 -7 -16 -19 -25 -34 -25 -18 0 -23 -6 -26 -29 -2 -22 -38 -66 -139
-173 -74 -79 -138 -150 -141 -160 -5 -11 2 -20 23 -28 16 -7 29 -16 29 -21 0
-5 16 -27 36 -49 30 -33 38 -38 54 -28 10 7 16 16 14 20 -3 5 8 24 25 43 36
41 46 73 37 118 -5 30 -5 31 9 13 8 -11 15 -23 15 -28 0 -4 5 -8 11 -8 6 0 8
7 5 15 -4 11 9 26 39 47 30 21 45 39 45 54 0 12 7 27 15 34 8 7 15 23 15 36 0
17 4 22 15 18 8 -4 15 -1 15 5 0 24 36 49 93 65 l58 17 -35 42 c-122 149 -355
323 -554 414 -166 75 -377 132 -412 111 -15 -10 -23 -9 -39 6 -31 28 -217 43
-361 29z m239 -152 c25 -5 54 -20 69 -34 l26 -26 -12 -108 c-7 -59 -17 -142
-22 -183 -6 -41 -17 -129 -25 -195 -34 -287 -46 -360 -62 -377 -13 -14 -32
-18 -89 -18 -66 0 -75 2 -89 24 -10 15 -25 96 -40 217 -24 186 -44 337 -65
481 -6 37 -10 92 -10 122 0 49 3 58 26 72 14 10 42 21 62 25 52 10 179 10 231
0z m-786 -218 c18 -21 43 -66 229 -403 75 -135 145 -262 157 -283 33 -59 28
-100 -16 -135 -54 -41 -81 -54 -103 -47 -11 3 -106 97 -212 208 -106 111 -236
248 -290 305 -83 87 -98 107 -98 135 0 41 30 84 98 138 113 89 200 120 235 82z"/>
<path d="M2174 5012 c-83 -4 -99 -22 -112 -127 -6 -45 -7 -84 -2 -89 5 -5 28
-1 54 9 51 20 54 19 58 -14 2 -18 -5 -25 -37 -36 -22 -8 -45 -21 -51 -30 -6
-8 -18 -15 -26 -15 -12 0 -17 -19 -22 -87 -4 -49 -11 -106 -16 -128 -5 -22
-10 -62 -10 -88 l0 -48 52 3 52 3 22 125 c26 152 63 283 115 411 21 52 39 98
39 101 0 9 -50 13 -116 10z"/>
<path d="M5433 4918 c-13 -6 -23 -15 -23 -20 0 -5 -4 -7 -9 -4 -21 13 -135
-55 -195 -117 -27 -28 -27 -29 -5 -22 13 4 45 18 71 31 61 31 93 30 124 -1 43
-43 104 -209 104 -282 0 -40 -18 -80 -39 -88 -9 -4 -97 -21 -196 -40 -99 -18
-214 -41 -255 -49 -41 -9 -78 -16 -82 -16 -8 0 -48 -82 -48 -98 0 -5 -7 -15
-15 -22 -8 -7 -15 -26 -15 -44 1 -17 -1 -44 -2 -61 -3 -30 -3 -30 77 -46 100
-20 221 -43 394 -74 123 -22 154 -33 173 -60 15 -20 7 -107 -17 -182 -13 -42
-22 -80 -18 -83 3 -3 8 1 11 9 2 8 19 28 38 46 20 20 40 55 52 93 11 33 26 71
33 84 7 12 12 29 11 36 -2 6 4 27 12 45 18 41 26 72 32 122 3 22 12 50 20 62
12 19 12 26 2 43 -7 11 -18 20 -24 20 -18 0 -31 21 -38 60 -3 19 -3 28 1 20 7
-16 33 -39 46 -40 14 0 7 38 -9 44 -15 6 -15 9 5 30 11 12 18 26 14 30 -12 12
-28 114 -36 231 -6 79 -32 164 -84 278 -32 68 -39 77 -62 76 -14 0 -36 -5 -48
-11z"/>
<path d="M3915 4443 c-80 -43 -78 -40 -79 -183 -1 -72 2 -131 6 -132 9 -4 12
-120 4 -140 -11 -23 17 -64 31 -46 6 7 36 83 66 168 31 85 68 186 82 224 25
66 25 69 8 90 -10 11 -18 22 -18 23 0 0 -16 4 -35 7 -23 4 -45 0 -65 -11z"/>
<path d="M1391 4255 c-9 -20 -15 -89 -17 -215 -2 -102 -9 -210 -15 -240 -6
-30 -13 -75 -16 -100 -7 -66 -32 -191 -45 -223 -8 -21 -8 -31 1 -40 13 -13 15
-47 3 -47 -4 0 -13 5 -19 11 -8 8 -18 6 -37 -6 -14 -10 -26 -21 -26 -25 0 -4
-16 -17 -35 -29 -30 -17 -36 -18 -49 -6 -8 8 -19 15 -25 15 -6 0 -17 14 -24
31 l-13 32 -25 -39 c-14 -22 -29 -50 -32 -64 -4 -16 -17 -30 -37 -37 -24 -9
-30 -17 -30 -42 0 -30 -13 -41 -25 -21 -12 20 -32 9 -52 -28 -15 -26 -19 -42
-12 -54 6 -11 4 -18 -6 -22 -13 -4 -11 -17 11 -78 47 -131 120 -292 134 -296
9 -3 11 1 7 11 -5 14 -2 15 20 6 43 -16 47 -21 28 -35 -10 -7 -15 -19 -12 -27
3 -8 1 -19 -5 -25 -12 -12 58 -148 151 -297 61 -96 58 -94 137 -80 33 6 42 4
47 -9 4 -11 0 -19 -11 -23 -35 -13 -44 -49 -9 -38 12 3 29 6 37 6 8 0 45 -1
81 -1 36 1 76 -4 90 -9 20 -8 14 -10 -32 -10 -39 -1 -61 -6 -70 -17 -9 -12
-24 -14 -58 -10 -84 11 -82 0 27 -136 164 -203 467 -499 494 -482 7 5 21 7 31
6 9 -2 17 3 17 10 0 10 18 15 66 16 65 3 104 17 104 38 0 6 12 16 28 21 55 20
92 31 92 29 0 -19 -25 -66 -35 -66 -64 0 -165 -47 -165 -77 0 -4 -12 -17 -27
-30 l-28 -23 25 -20 c41 -33 247 -169 276 -182 20 -9 27 -9 34 2 9 14 70 25
70 12 0 -5 -11 -15 -25 -22 -14 -8 -24 -18 -22 -23 4 -14 177 -104 332 -173
153 -67 383 -149 393 -140 3 4 7 30 8 58 1 30 8 56 16 62 8 6 18 20 22 31 7
19 9 18 23 -8 14 -28 13 -31 -21 -83 -20 -29 -36 -57 -36 -62 0 -7 140 -47
143 -40 18 34 27 43 43 43 18 0 21 -11 13 -44 -5 -17 14 -22 186 -52 84 -15
139 -19 184 -15 54 6 65 4 76 -11 12 -17 36 -18 292 -18 210 1 308 5 402 18
69 10 128 20 132 23 4 2 3 19 -2 37 -5 17 -9 39 -9 47 1 23 50 -37 50 -61 0
-10 1 -19 3 -19 8 0 164 31 204 41 631 152 1166 450 1618 904 164 164 281 305
406 487 l80 118 -17 39 c-9 22 -27 44 -40 49 -12 6 -28 23 -36 39 -7 15 -24
33 -36 39 -38 19 -49 34 -25 34 12 0 44 -24 77 -56 30 -30 60 -53 65 -50 5 4
17 -4 25 -16 16 -22 16 -22 31 -3 28 38 195 381 231 475 77 205 144 440 178
631 26 142 45 323 34 336 -6 7 -5 14 2 18 12 8 14 75 1 75 -5 0 -12 -13 -16
-30 -4 -16 -11 -30 -16 -30 -8 0 -23 -26 -34 -60 -9 -27 -20 -40 -32 -40 -8 0
-13 -6 -11 -12 3 -7 -7 -35 -22 -63 -15 -28 -30 -64 -34 -80 -11 -42 -53 -111
-100 -161 -23 -24 -54 -60 -70 -79 -34 -42 -93 -75 -134 -75 -45 0 -82 37
-119 118 -19 41 -38 71 -42 66 -4 -5 -22 -46 -40 -91 -47 -117 -55 -122 -153
-98 -24 6 -27 2 -57 -84 -65 -186 -181 -415 -297 -584 -49 -72 -52 -79 -34
-84 11 -3 20 -14 20 -23 0 -10 9 -22 20 -25 20 -6 28 -25 11 -25 -6 0 -9 -27
-7 -60 1 -33 1 -60 -1 -60 -1 0 -10 25 -18 55 -11 37 -25 61 -45 75 -15 11
-30 20 -33 20 -2 0 -26 -28 -53 -62 -74 -95 -251 -274 -353 -358 -50 -41 -91
-78 -91 -81 0 -12 85 -49 113 -49 31 0 34 -10 9 -33 -11 -10 -26 -14 -41 -10
-17 4 -28 1 -37 -11 -11 -16 -15 -16 -41 -2 -39 20 -63 48 -45 53 14 5 17 23
3 23 -5 0 -51 -29 -102 -64 -577 -392 -1323 -535 -2011 -386 -148 33 -369 102
-474 150 -77 35 -74 34 -74 18 -1 -7 -7 -26 -15 -43 l-15 -30 4 47 3 48 -106
56 c-469 248 -868 645 -1108 1104 -189 360 -287 735 -302 1145 -6 179 -8 197
-20 170z m-46 -1112 c-4 -10 -10 -28 -12 -40 -4 -16 -13 -23 -29 -23 -12 0
-34 -4 -48 -10 -28 -10 -89 -98 -100 -143 -6 -24 -9 -27 -21 -17 -8 7 -15 17
-15 23 0 5 -12 25 -26 44 -21 28 -23 34 -10 39 9 3 23 4 31 0 25 -9 64 12 71
38 9 36 38 58 71 54 22 -2 32 3 45 25 20 30 55 39 43 10z m1345 -1413 c0 -14
97 -13 106 1 9 15 24 -9 24 -39 0 -13 7 -30 15 -38 16 -17 20 -44 7 -44 -5 0
-19 11 -31 24 -16 17 -31 23 -47 20 -16 -3 -24 0 -24 10 0 14 -56 33 -66 23
-3 -3 2 -22 10 -42 21 -48 20 -52 -4 -30 -13 12 -20 14 -20 6 0 -21 -20 -8
-41 26 l-20 32 33 9 c26 7 32 14 31 30 -2 14 3 22 12 22 8 0 15 -4 15 -10z
m2264 -447 c33 5 36 4 36 -18 0 -12 6 -25 14 -28 12 -5 13 -13 5 -42 -6 -20
-7 -46 -4 -58 6 -21 5 -21 -17 3 -13 14 -48 34 -78 44 -30 10 -68 32 -84 47
l-28 29 34 0 c22 0 42 7 53 20 13 14 21 17 26 9 4 -8 20 -10 43 -6z m-663
-144 c5 -11 14 -19 19 -19 16 0 99 -92 116 -129 9 -19 31 -47 48 -63 33 -30
21 -38 -19 -12 -13 9 -30 17 -37 18 -7 1 -32 14 -55 29 -24 15 -52 27 -64 27
-16 0 -19 4 -15 17 4 9 1 20 -5 24 -12 7 -17 31 -22 100 -3 40 14 44 34 8z"/>
<path d="M670 4080 c0 -66 3 -120 8 -120 4 0 8 -40 9 -88 3 -97 26 -281 49
-382 41 -181 67 -281 75 -286 5 -3 14 9 21 26 9 26 14 31 34 26 17 -5 26 -1
34 13 5 11 18 22 28 25 26 9 93 93 96 121 1 14 11 33 20 44 17 18 16 31 -8
268 -37 351 -56 473 -73 473 -2 0 -22 -14 -43 -31 -29 -23 -53 -33 -90 -37
-33 -3 -50 -1 -50 7 0 9 -89 61 -105 61 -3 0 -5 -54 -5 -120z"/>
<path d="M2018 4142 c-16 -3 -17 -13 -12 -85 3 -45 11 -104 19 -132 7 -27 16
-68 19 -90 14 -84 29 -142 50 -187 20 -45 23 -48 60 -48 32 0 37 3 31 18 -19
48 -65 311 -72 412 l-8 115 -35 0 c-19 0 -43 -1 -52 -3z"/>
<path d="M4495 3985 c-26 -64 -101 -158 -161 -201 -57 -41 -182 -94 -220 -94
-12 0 -41 -49 -32 -54 2 -1 15 -7 31 -14 15 -6 31 -22 36 -34 5 -13 20 -115
35 -228 14 -113 38 -295 52 -404 29 -225 27 -237 -34 -263 -57 -24 -254 -23
-305 1 -65 32 -65 6 -8 456 11 85 23 183 26 218 l7 63 -37 -25 c-20 -14 -46
-28 -57 -32 -36 -11 -86 5 -113 38 -26 30 -28 31 -39 13 -13 -23 -44 -80 -180
-330 -54 -99 -108 -188 -119 -199 -30 -25 -84 -16 -153 25 -110 67 -184 147
-184 199 0 12 44 67 110 137 61 65 110 122 110 128 0 19 -23 35 -52 35 -19 0
-28 5 -28 16 0 13 7 15 34 10 28 -5 37 -3 49 15 9 12 20 18 26 14 17 -10 13 6
-10 44 -20 32 -21 33 -40 15 -20 -18 -20 -18 -9 11 10 27 9 32 -14 51 -17 16
-21 25 -14 32 8 8 6 23 -7 52 -10 22 -20 40 -23 40 -15 0 -239 -111 -312 -155
-88 -52 -152 -77 -175 -69 -10 4 -98 -28 -113 -41 -7 -6 50 -108 119 -211 101
-151 283 -333 439 -437 288 -191 573 -277 918 -277 340 0 637 89 912 273 224
149 428 375 540 596 20 40 20 43 3 36 -84 -34 -201 -75 -214 -75 -9 0 -21 -11
-27 -25 -12 -27 -32 -34 -32 -11 0 10 -24 15 -97 18 -151 8 -287 72 -411 192
-94 90 -135 158 -167 279 -55 204 -51 194 -60 172z m75 -324 c277 -286 476
-502 485 -526 14 -38 -17 -87 -91 -146 -68 -54 -166 -109 -194 -109 -45 0 -61
26 -353 560 -59 109 -107 207 -107 222 0 25 39 64 95 96 41 23 59 13 165 -97z"/>
<path d="M5002 3644 c-32 -14 -32 -15 -16 -39 9 -14 20 -25 24 -25 4 0 17 -9
29 -19 12 -11 32 -18 43 -16 11 3 28 0 37 -5 11 -5 45 -4 92 4 l74 14 -108 51
c-116 55 -125 57 -175 35z"/>
</g>
</svg>
